<svg width="18" height="16" viewBox="0 0 18 16" fill="none" xmlns="http://www.w3.org/2000/svg">
<path d="M12.9059 0.187409C12.1479 0.187409 11.4003 0.363898 10.7223 0.702901C10.0443 1.0419 9.45449 1.53411 8.99967 2.14053C8.38478 1.32068 7.52752 0.715077 6.54932 0.40951C5.57112 0.103943 4.52157 0.113903 3.54934 0.437978C2.57711 0.762054 1.7315 1.38382 1.13228 2.21519C0.533057 3.04656 0.210609 4.0454 0.210609 5.07022C0.210609 10.9215 8.34049 15.5357 8.68229 15.731C8.77914 15.7855 8.88858 15.8135 8.99967 15.8124C9.11086 15.8143 9.2205 15.7862 9.31705 15.731C10.8142 14.8558 12.2185 13.8305 13.5081 12.6711C16.3483 10.1158 17.7887 7.56045 17.7887 5.07022C17.7887 3.77522 17.2743 2.53326 16.3586 1.61755C15.4429 0.701846 14.2009 0.187409 12.9059 0.187409V0.187409Z" fill="#FF004D"/>
</svg>
